<svg width="44" height="43" viewBox="0 0 44 43" fill="none" xmlns="http://www.w3.org/2000/svg">
<g filter="url(#filter0_d_10681_5663)">
<path d="M24.75 8C24.75 6.67188 23.9688 5.5 22.875 4.79688C21.7031 4.09375 20.2188 4.09375 19.125 4.79688C17.9531 5.5 17.25 6.67188 17.25 8C17.25 9.40625 17.9531 10.5781 19.125 11.2812C20.2188 11.9844 21.7031 11.9844 22.875 11.2812C23.9688 10.5781 24.75 9.40625 24.75 8ZM23.1875 15.1875C22.4844 15.4219 21.7031 15.5 21 15.5C20.2188 15.5 19.4375 15.4219 18.7344 15.1875L13.3438 24.4844C15.6094 25.5781 18.2656 26.125 21 26.125C27.6406 26.125 33.5 22.5312 36.7031 17.0625L39.9062 18.9375C36.1562 25.5 29.0469 29.875 21 29.875C17.5625 29.875 14.2812 29.0938 11.3906 27.6875L4.90625 38.8594L3.96875 40.5L0.6875 38.625L1.625 36.9844L8.1875 25.8125C5.6875 24.0156 3.57812 21.6719 2.01562 18.9375L5.29688 17.0625C6.46875 19.25 8.10938 21.0469 10.0625 22.5312L15.5312 13.2344C14.2812 11.9062 13.5 10.0312 13.5 8C13.5 3.85938 16.8594 0.5 21 0.5C25.1406 0.5 28.5 3.85938 28.5 8C28.5 10.0312 27.6406 11.9062 26.3906 13.2344L30.5312 20.3438C29.5938 21.125 28.5 21.75 27.3281 22.2969L23.1875 15.1875ZM40.2969 36.9844L41.2344 38.625L37.9531 40.5L37.0156 38.8594L31.7812 29.875C32.875 29.3281 33.9688 28.7031 34.9844 28L40.2969 36.9844Z" fill="#3364FA"/>
</g>
<defs>
<filter id="filter0_d_10681_5663" x="0.6875" y="0.5" width="42.5469" height="42" filterUnits="userSpaceOnUse" color-interpolation-filters="sRGB">
<feFlood flood-opacity="0" result="BackgroundImageFix"/>
<feColorMatrix in="SourceAlpha" type="matrix" values="0 0 0 0 0 0 0 0 0 0 0 0 0 0 0 0 0 0 127 0" result="hardAlpha"/>
<feOffset dx="2" dy="2"/>
<feComposite in2="hardAlpha" operator="out"/>
<feColorMatrix type="matrix" values="0 0 0 0 0.721569 0 0 0 0 0.988235 0 0 0 0 0.74902 0 0 0 1 0"/>
<feBlend mode="normal" in2="BackgroundImageFix" result="effect1_dropShadow_10681_5663"/>
<feBlend mode="normal" in="SourceGraphic" in2="effect1_dropShadow_10681_5663" result="shape"/>
</filter>
</defs>
</svg>
