<svg width="52" height="32" viewBox="0 0 52 32" fill="none" xmlns="http://www.w3.org/2000/svg">
<g filter="url(#filter0_d_10895_11082)">
<path d="M27.0312 21.7188L26.25 20H23.75L22.8906 21.7188L18.75 30H3.75H0V26.25V3.75V0H3.75H46.25H50V3.75V26.25V30H46.25H31.25L27.0312 21.7188ZM16.4062 26.25L20.3906 18.3594L21.4062 16.25H23.75H26.25H28.5156L29.5312 18.3594L33.5156 26.25H46.25V3.75H3.75V26.25H16.4062ZM17.5 13.75C17.5 15.5469 16.4844 17.1875 15 18.125C13.4375 18.9844 11.4844 18.9844 10 18.125C8.4375 17.1875 7.5 15.5469 7.5 13.75C7.5 12.0312 8.4375 10.3906 10 9.45312C11.4844 8.59375 13.4375 8.59375 15 9.45312C16.4844 10.3906 17.5 12.0312 17.5 13.75ZM37.5 18.75C35.7031 18.75 34.0625 17.8125 33.125 16.25C32.2656 14.7656 32.2656 12.8125 33.125 11.25C34.0625 9.76562 35.7031 8.75 37.5 8.75C39.2188 8.75 40.8594 9.76562 41.7969 11.25C42.6562 12.8125 42.6562 14.7656 41.7969 16.25C40.8594 17.8125 39.2188 18.75 37.5 18.75Z" fill="#3364FA"/>
</g>
<defs>
<filter id="filter0_d_10895_11082" x="0" y="0" width="52" height="32" filterUnits="userSpaceOnUse" color-interpolation-filters="sRGB">
<feFlood flood-opacity="0" result="BackgroundImageFix"/>
<feColorMatrix in="SourceAlpha" type="matrix" values="0 0 0 0 0 0 0 0 0 0 0 0 0 0 0 0 0 0 127 0" result="hardAlpha"/>
<feOffset dx="2" dy="2"/>
<feComposite in2="hardAlpha" operator="out"/>
<feColorMatrix type="matrix" values="0 0 0 0 0.721569 0 0 0 0 0.988235 0 0 0 0 0.74902 0 0 0 1 0"/>
<feBlend mode="normal" in2="BackgroundImageFix" result="effect1_dropShadow_10895_11082"/>
<feBlend mode="normal" in="SourceGraphic" in2="effect1_dropShadow_10895_11082" result="shape"/>
</filter>
</defs>
</svg>
