<svg width="38" height="38" viewBox="0 0 38 38" fill="none" xmlns="http://www.w3.org/2000/svg">
<g filter="url(#filter0_d_11278_5701)">
<path d="M3.625 16.1394L0.96875 13.5613L0.5 13.0144V4.2644V0.514404H4.25H13L13.4688 1.06128L16.125 3.6394L13.4688 6.29565L11.2031 8.56128L18 15.3582L24.7969 8.56128L22.4531 6.29565L19.875 3.6394L22.4531 1.06128L23 0.514404H31.75H35.5V4.2644V13.0144L34.9531 13.5613L32.375 16.1394L29.7188 13.5613L27.4531 11.2175L20.6562 18.0144L27.4531 24.8113L29.7188 22.5457L32.375 19.8894L34.9531 22.5457L35.5 23.0144V31.7644V35.5144H31.75H23L22.4531 35.0457L19.875 32.3894L22.4531 29.8113L24.7969 27.4675L18 20.6707L11.2031 27.4675L13.4688 29.8113L16.125 32.3894L13.4688 35.0457L13 35.5144H4.25H0.5V31.7644V23.0144L0.96875 22.5457L3.625 19.8894L6.20312 22.5457L8.54688 24.8113L15.3438 18.0144L8.54688 11.2175L6.20312 13.5613L3.625 16.1394ZM4.25 10.28L10.1875 4.2644H4.25V10.28ZM10.1875 31.7644L4.25 25.8269V31.7644H10.1875ZM25.7344 31.7644H31.75V25.8269L25.7344 31.7644ZM25.7344 4.2644L31.75 10.28V4.2644H25.7344Z" fill="#3364FA"/>
</g>
<defs>
<filter id="filter0_d_11278_5701" x="0.5" y="0.514404" width="37" height="37" filterUnits="userSpaceOnUse" color-interpolation-filters="sRGB">
<feFlood flood-opacity="0" result="BackgroundImageFix"/>
<feColorMatrix in="SourceAlpha" type="matrix" values="0 0 0 0 0 0 0 0 0 0 0 0 0 0 0 0 0 0 127 0" result="hardAlpha"/>
<feOffset dx="2" dy="2"/>
<feComposite in2="hardAlpha" operator="out"/>
<feColorMatrix type="matrix" values="0 0 0 0 0.721569 0 0 0 0 0.988235 0 0 0 0 0.74902 0 0 0 1 0"/>
<feBlend mode="normal" in2="BackgroundImageFix" result="effect1_dropShadow_11278_5701"/>
<feBlend mode="normal" in="SourceGraphic" in2="effect1_dropShadow_11278_5701" result="shape"/>
</filter>
</defs>
</svg>
