<svg width="42" height="38" viewBox="0 0 42 38" fill="none" xmlns="http://www.w3.org/2000/svg">
<g filter="url(#filter0_d_10895_10924)">
<path d="M3.75 2.375V31.75H38.125H40V35.5H38.125H1.875H0V33.625V2.375V0.5H3.75V2.375ZM26.875 8H35.625H37.5V9.875V18.625V20.5H33.75V18.625V14.4062L25.0781 23.0781L23.75 24.4062L22.4219 23.0781L16.25 16.9062L11.3281 21.8281L10 23.1562L7.34375 20.5781L8.67188 19.25L14.9219 13L16.25 11.6719L17.5781 13L23.75 19.1719L31.0938 11.75H26.875H25V8H26.875Z" fill="#3364FA"/>
</g>
<defs>
<filter id="filter0_d_10895_10924" x="0" y="0.5" width="42" height="37" filterUnits="userSpaceOnUse" color-interpolation-filters="sRGB">
<feFlood flood-opacity="0" result="BackgroundImageFix"/>
<feColorMatrix in="SourceAlpha" type="matrix" values="0 0 0 0 0 0 0 0 0 0 0 0 0 0 0 0 0 0 127 0" result="hardAlpha"/>
<feOffset dx="2" dy="2"/>
<feComposite in2="hardAlpha" operator="out"/>
<feColorMatrix type="matrix" values="0 0 0 0 0.721569 0 0 0 0 0.988235 0 0 0 0 0.74902 0 0 0 1 0"/>
<feBlend mode="normal" in2="BackgroundImageFix" result="effect1_dropShadow_10895_10924"/>
<feBlend mode="normal" in="SourceGraphic" in2="effect1_dropShadow_10895_10924" result="shape"/>
</filter>
</defs>
</svg>
