<svg width="47" height="43" viewBox="0 0 47 43" fill="none" xmlns="http://www.w3.org/2000/svg">
<g filter="url(#filter0_d_11278_5706)">
<path d="M22.5 15.9519L35.7031 10.0144L22.5 4.15503L9.21875 10.0144L22.5 15.9519ZM40.3125 7.98315L45 10.0144L40.3125 12.1238L22.5 20.0144L4.60938 12.1238L0 10.0144L4.60938 7.98315L22.5 0.0144043L40.3125 7.98315ZM12.7344 18.4519L9.21875 20.0144L22.5 25.9519L35.7031 20.0144L32.1875 18.4519L36.7969 16.4207L40.3125 17.9832L45 20.0144L40.3125 22.1238L22.5 30.0144L4.60938 22.1238L0 20.0144L4.60938 17.9832L8.125 16.4207L12.7344 18.4519ZM8.125 26.4207L12.7344 28.4519L9.21875 30.0144L22.5 35.9519L35.7031 30.0144L32.1875 28.4519L36.7969 26.4207L40.3125 27.9832L45 30.0144L40.3125 32.1238L22.5 40.0144L4.60938 32.1238L0 30.0144L4.60938 27.9832L8.125 26.4207Z" fill="#3364FA"/>
</g>
<defs>
<filter id="filter0_d_11278_5706" x="0" y="0.0144043" width="47" height="42" filterUnits="userSpaceOnUse" color-interpolation-filters="sRGB">
<feFlood flood-opacity="0" result="BackgroundImageFix"/>
<feColorMatrix in="SourceAlpha" type="matrix" values="0 0 0 0 0 0 0 0 0 0 0 0 0 0 0 0 0 0 127 0" result="hardAlpha"/>
<feOffset dx="2" dy="2"/>
<feComposite in2="hardAlpha" operator="out"/>
<feColorMatrix type="matrix" values="0 0 0 0 0.721569 0 0 0 0 0.988235 0 0 0 0 0.74902 0 0 0 1 0"/>
<feBlend mode="normal" in2="BackgroundImageFix" result="effect1_dropShadow_11278_5706"/>
<feBlend mode="normal" in="SourceGraphic" in2="effect1_dropShadow_11278_5706" result="shape"/>
</filter>
</defs>
</svg>
