<svg width="35" height="43" viewBox="0 0 35 43" fill="none" xmlns="http://www.w3.org/2000/svg">
<g filter="url(#filter0_d_11278_5721)">
<path d="M22.75 3.7644H10.25V17.5144H6.5V3.7644V0.0144043H10.25H22.75H26.5V3.7644V17.5144H22.75V3.7644ZM4 11.8894V15.6394V17.5144H0.25V15.6394V11.8894V10.0144H4V11.8894ZM32.75 11.8894V15.6394V17.5144H29V15.6394V11.8894V10.0144H32.75V11.8894ZM18.375 31.2644V36.2644H22.125H24V40.0144H22.125H16.5H10.875H9V36.2644H10.875H14.625V31.2644H5.25H1.5V28.7644L1.96875 27.5144L5.25 20.0144H27.75L30.9531 27.5144L31.5 28.7644V31.2644H27.75H18.375ZM7.67188 23.7644L6.10938 27.5144H14.625H18.375H26.8125L25.25 23.7644H7.67188Z" fill="#3364FA"/>
</g>
<defs>
<filter id="filter0_d_11278_5721" x="0.25" y="0.0144043" width="34.5" height="42" filterUnits="userSpaceOnUse" color-interpolation-filters="sRGB">
<feFlood flood-opacity="0" result="BackgroundImageFix"/>
<feColorMatrix in="SourceAlpha" type="matrix" values="0 0 0 0 0 0 0 0 0 0 0 0 0 0 0 0 0 0 127 0" result="hardAlpha"/>
<feOffset dx="2" dy="2"/>
<feComposite in2="hardAlpha" operator="out"/>
<feColorMatrix type="matrix" values="0 0 0 0 0.721569 0 0 0 0 0.988235 0 0 0 0 0.74902 0 0 0 1 0"/>
<feBlend mode="normal" in2="BackgroundImageFix" result="effect1_dropShadow_11278_5721"/>
<feBlend mode="normal" in="SourceGraphic" in2="effect1_dropShadow_11278_5721" result="shape"/>
</filter>
</defs>
</svg>
