<svg width="47" height="42" viewBox="0 0 47 42" fill="none" xmlns="http://www.w3.org/2000/svg">
<g filter="url(#filter0_d_11278_5711)">
<path d="M22.5 0.405029L23.125 0.639404L33.75 4.3894L35 4.85815V6.18628V16.2644L43.75 19.6238L45 20.0925V21.3425V33.3738V34.6238L43.8281 35.0925L33.8281 39.4675L33.125 39.8582L32.3438 39.5457L22.5 35.405L12.5781 39.5457L11.7969 39.8582L11.0938 39.4675L1.09375 35.0925L0 34.6238V33.3738V21.3425V20.0925L1.17188 19.6238L10 16.2644V6.18628V4.85815L11.1719 4.3894L21.7969 0.639404L22.5 0.405029ZM31.25 9.23315L24.375 11.8894V18.6863L31.25 16.2644V9.23315ZM20.625 11.8894L13.75 9.23315V16.2644L20.625 18.6863V11.8894ZM24.375 32.1238L31.25 35.0144V27.6707L24.375 25.0925V32.1238ZM35 34.9363L41.25 32.2019V25.3269L35 27.6707V34.9363ZM20.625 25.0925L13.75 27.6707V35.0144L20.625 32.1238V25.0925ZM3.75 32.2019L10 34.9363V27.6707L3.75 25.3269V32.2019ZM22.5 4.3894L16.7188 6.42065L22.5 8.60815L28.2031 6.42065L22.5 4.3894ZM11.875 19.5457L5.46875 21.9675L11.875 24.3894L18.3594 21.8894L11.875 19.5457ZM39.4531 21.9675L33.0469 19.5457L26.5625 21.8894L33.125 24.3894L39.4531 21.9675Z" fill="#3364FA"/>
</g>
<defs>
<filter id="filter0_d_11278_5711" x="0" y="0.405029" width="47" height="41.4531" filterUnits="userSpaceOnUse" color-interpolation-filters="sRGB">
<feFlood flood-opacity="0" result="BackgroundImageFix"/>
<feColorMatrix in="SourceAlpha" type="matrix" values="0 0 0 0 0 0 0 0 0 0 0 0 0 0 0 0 0 0 127 0" result="hardAlpha"/>
<feOffset dx="2" dy="2"/>
<feComposite in2="hardAlpha" operator="out"/>
<feColorMatrix type="matrix" values="0 0 0 0 0.721569 0 0 0 0 0.988235 0 0 0 0 0.74902 0 0 0 1 0"/>
<feBlend mode="normal" in2="BackgroundImageFix" result="effect1_dropShadow_11278_5711"/>
<feBlend mode="normal" in="SourceGraphic" in2="effect1_dropShadow_11278_5711" result="shape"/>
</filter>
</defs>
</svg>
