<svg width="44" height="43" viewBox="0 0 44 43" fill="none" xmlns="http://www.w3.org/2000/svg">
<g filter="url(#filter0_d_11278_5726)">
<path d="M16.3906 35.6394C14.75 33.6082 13.1094 30.9519 12.0938 27.5144H6.54688C8.57812 31.4207 12.0938 34.3894 16.3906 35.6394ZM18.9688 32.8269C19.6719 33.7644 20.375 34.5457 21 35.1707C21.5469 34.5457 22.25 33.7644 22.9531 32.8269C24.0469 31.4207 25.1406 29.7019 25.9219 27.5144H16C16.8594 29.7019 17.875 31.4207 18.9688 32.8269ZM14.75 20.0144C14.75 21.4207 14.8281 22.5925 15.0625 23.7644H26.9375C27.0938 22.5925 27.25 21.4207 27.25 20.0144C27.25 18.6863 27.0938 17.4363 26.9375 16.2644H15.0625C14.8281 17.4363 14.75 18.6863 14.75 20.0144ZM11.2344 16.2644H5.14062C4.82812 17.5144 4.75 18.7644 4.75 20.0144C4.75 21.3425 4.90625 22.5925 5.14062 23.7644H11.2344C11.0781 22.5925 11 21.3425 11 20.0144C11 18.7644 11.0781 17.5144 11.2344 16.2644ZM16 12.5144H25.9219C25.1406 10.405 24.0469 8.60815 22.9531 7.2019C22.25 6.34253 21.5469 5.56128 21 4.93628C20.375 5.56128 19.6719 6.34253 18.9688 7.2019C17.875 8.60815 16.8594 10.405 16 12.5144ZM30.6875 16.2644C30.8438 17.5144 31 18.7644 31 20.0144C31 21.3425 30.8438 22.5925 30.6875 23.7644H36.7812C37.0938 22.5925 37.25 21.3425 37.25 20.0144C37.25 18.7644 37.0938 17.5144 36.7812 16.2644H30.6875ZM35.375 12.5144C33.3438 8.68628 29.8281 5.71753 25.5312 4.46753C27.1719 6.49878 28.8125 9.15503 29.8281 12.5144H35.375ZM12.0938 12.5144C13.1094 9.15503 14.75 6.49878 16.3906 4.46753C12.0938 5.71753 8.57812 8.68628 6.54688 12.5144H12.0938ZM25.5312 35.6394C29.8281 34.3894 33.3438 31.4207 35.375 27.5144H29.8281C28.8125 30.9519 27.1719 33.6082 25.5312 35.6394ZM21 40.0144C13.8125 40.0144 7.25 36.2644 3.65625 30.0144C0.0625 23.8425 0.0625 16.2644 3.65625 10.0144C7.25 3.84253 13.8125 0.0144043 21 0.0144043C28.1094 0.0144043 34.6719 3.84253 38.2656 10.0144C41.8594 16.2644 41.8594 23.8425 38.2656 30.0144C34.6719 36.2644 28.1094 40.0144 21 40.0144Z" fill="#3364FA"/>
</g>
<defs>
<filter id="filter0_d_11278_5726" x="0.0625" y="0.0144043" width="43.7969" height="42" filterUnits="userSpaceOnUse" color-interpolation-filters="sRGB">
<feFlood flood-opacity="0" result="BackgroundImageFix"/>
<feColorMatrix in="SourceAlpha" type="matrix" values="0 0 0 0 0 0 0 0 0 0 0 0 0 0 0 0 0 0 127 0" result="hardAlpha"/>
<feOffset dx="2" dy="2"/>
<feComposite in2="hardAlpha" operator="out"/>
<feColorMatrix type="matrix" values="0 0 0 0 0.721569 0 0 0 0 0.988235 0 0 0 0 0.74902 0 0 0 1 0"/>
<feBlend mode="normal" in2="BackgroundImageFix" result="effect1_dropShadow_11278_5726"/>
<feBlend mode="normal" in="SourceGraphic" in2="effect1_dropShadow_11278_5726" result="shape"/>
</filter>
</defs>
</svg>
