<svg width="42" height="38" viewBox="0 0 42 38" fill="none" xmlns="http://www.w3.org/2000/svg">
<g filter="url(#filter0_d_11278_5686)">
<path d="M3.75 4.2644V11.7644H36.25V4.2644H3.75ZM0 0.514404H3.75H36.25H40V4.2644V11.7644V15.5144H36.25H3.75H0V11.7644V4.2644V0.514404ZM3.75 24.2644V31.7644H36.25V24.2644H3.75ZM0 20.5144H3.75H36.25H40V24.2644V31.7644V35.5144H36.25H3.75H0V31.7644V24.2644V20.5144ZM30.625 28.0144C30.625 26.9988 31.4062 26.1394 32.5 26.1394C33.5156 26.1394 34.375 26.9988 34.375 28.0144C34.375 29.1082 33.5156 29.8894 32.5 29.8894C31.4062 29.8894 30.625 29.1082 30.625 28.0144ZM32.5 6.1394C33.5156 6.1394 34.375 6.99878 34.375 8.0144C34.375 9.10815 33.5156 9.8894 32.5 9.8894C31.4062 9.8894 30.625 9.10815 30.625 8.0144C30.625 6.99878 31.4062 6.1394 32.5 6.1394ZM25.625 28.0144C25.625 26.9988 26.4062 26.1394 27.5 26.1394C28.5156 26.1394 29.375 26.9988 29.375 28.0144C29.375 29.1082 28.5156 29.8894 27.5 29.8894C26.4062 29.8894 25.625 29.1082 25.625 28.0144ZM27.5 6.1394C28.5156 6.1394 29.375 6.99878 29.375 8.0144C29.375 9.10815 28.5156 9.8894 27.5 9.8894C26.4062 9.8894 25.625 9.10815 25.625 8.0144C25.625 6.99878 26.4062 6.1394 27.5 6.1394Z" fill="#3364FA"/>
</g>
<defs>
<filter id="filter0_d_11278_5686" x="0" y="0.514404" width="42" height="37" filterUnits="userSpaceOnUse" color-interpolation-filters="sRGB">
<feFlood flood-opacity="0" result="BackgroundImageFix"/>
<feColorMatrix in="SourceAlpha" type="matrix" values="0 0 0 0 0 0 0 0 0 0 0 0 0 0 0 0 0 0 127 0" result="hardAlpha"/>
<feOffset dx="2" dy="2"/>
<feComposite in2="hardAlpha" operator="out"/>
<feColorMatrix type="matrix" values="0 0 0 0 0.721569 0 0 0 0 0.988235 0 0 0 0 0.74902 0 0 0 1 0"/>
<feBlend mode="normal" in2="BackgroundImageFix" result="effect1_dropShadow_11278_5686"/>
<feBlend mode="normal" in="SourceGraphic" in2="effect1_dropShadow_11278_5686" result="shape"/>
</filter>
</defs>
</svg>
