<svg width="160" height="160" viewBox="0 0 160 160" fill="none" xmlns="http://www.w3.org/2000/svg">
<g clip-path="url(#clip0_10507_3806)">
<rect x="5" y="91" width="150" height="64" fill="#B8FCBF"/>
<path d="M120.267 114.222H114.756V121.422H119.733C122.844 121.422 124.533 120 124.533 117.778C124.533 115.556 123.022 114.222 120.267 114.222Z" fill="#3364FA"/>
<path d="M0 0V160H160V0H0ZM44.5333 134.489L35.0222 121.867V134.489H25.4222V107.556H35.0222V117.867L44.7111 107.556H56.1778L44.5333 119.556L56.3556 134.4H44.4444L44.5333 134.489ZM69.5111 134.489H59.9111V107.556H69.5111V134.489ZM64.7111 104.089C61.8667 104.089 59.4667 101.778 59.4667 98.8444C59.4667 95.9111 61.7778 93.6 64.7111 93.6C67.6444 93.6 69.9556 95.9111 69.9556 98.8444C69.9556 101.778 67.6444 104.089 64.7111 104.089ZM87.2889 135.289C81.9556 135.289 77.4222 133.867 74.3111 131.911V124.978C77.6 127.022 81.7778 128.444 86.2222 128.444C90.6667 128.444 90.7556 127.911 90.7556 126.756C90.7556 125.6 89.9556 125.156 87.2889 124.711L83.4667 124C76.9778 122.844 74.2222 120 74.2222 115.556C74.2222 111.111 78.6667 106.844 88 106.844C97.3333 106.844 97.3333 108.267 99.2889 109.511V116.178C97.3333 115.111 93.6889 113.867 89.2444 113.867C84.8 113.867 84.2667 114.489 84.2667 115.467C84.2667 116.444 84.9778 116.711 87.3778 117.067L91.6444 117.778C97.8667 118.844 100.8 121.244 100.8 126.133C100.8 131.022 95.3778 135.378 87.2889 135.378V135.289ZM122.222 127.467H114.756V134.489H105.156V107.556H123.733C130.844 107.556 134.4 111.556 134.4 117.511C134.4 123.467 130.311 127.556 122.222 127.556V127.467Z" fill="#3364FA"/>
</g>
<defs>
<clipPath id="clip0_10507_3806">
<rect width="160" height="160" fill="white"/>
</clipPath>
</defs>
</svg>
