<svg width="128" height="128" viewBox="0 0 128 128" fill="none" xmlns="http://www.w3.org/2000/svg">
<g clip-path="url(#clip0_10754_3786)">
<rect x="10.7563" y="86.5626" width="74.7819" height="32.2689" fill="#B8FCBF"/>
<path d="M69.1477 101.673H65.972V105.822H68.8404C70.6331 105.822 71.6063 105.002 71.6063 103.721C71.6063 102.441 70.7355 101.673 69.1477 101.673Z" fill="#3364FA"/>
<path d="M35.7007 0L0 36.008V128H91.992L128 92.2993V0H35.7007ZM25.6615 113.351L20.1809 106.078V113.351H14.6491V97.8824H20.1809V103.824L25.7639 97.8824H32.3713L25.6615 104.797L32.4738 113.351H25.6615ZM40.0032 113.351H34.4714V97.8824H40.0032V113.351ZM37.2373 95.8848C35.5982 95.8848 34.2665 94.553 34.2665 92.914C34.2665 91.2749 35.5982 89.9432 37.2373 89.9432C38.8764 89.9432 40.2081 91.2749 40.2081 92.914C40.2081 94.553 38.8764 95.8848 37.2373 95.8848ZM50.2473 113.761C47.1741 113.761 44.613 112.941 42.8203 111.814V107.819C44.7155 108.997 47.1228 109.817 49.6327 109.817C52.1425 109.817 52.1937 109.509 52.1937 108.844C52.1937 108.178 51.7327 107.922 50.1961 107.665L47.9936 107.256C44.2545 106.59 42.6667 105.002 42.6667 102.39C42.6667 99.7775 45.2277 97.3702 50.5546 97.3702C55.8815 97.3702 55.8816 98.1897 57.0596 98.9068V102.748C55.9328 102.134 53.8327 101.417 51.2717 101.417C48.7107 101.417 48.4034 101.775 48.4034 102.339C48.4034 102.902 48.8131 103.056 50.1961 103.261L52.6547 103.67C56.2401 104.285 57.9304 105.668 57.9304 108.485C57.9304 111.302 54.8059 113.812 50.1449 113.812L50.2473 113.761ZM70.2745 109.305H65.972V113.351H60.4402V97.8824H71.1453C75.2429 97.8824 77.2917 100.187 77.2917 103.568C77.2917 106.948 74.9356 109.356 70.2745 109.356V109.305Z" fill="#3364FA"/>
</g>
<defs>
<clipPath id="clip0_10754_3786">
<rect width="128" height="128" fill="white"/>
</clipPath>
</defs>
</svg>
