<svg width="22" height="23" viewBox="0 0 22 23" fill="none" xmlns="http://www.w3.org/2000/svg">
<g filter="url(#filter0_d_11293_907)">
<path d="M1.28906 14.8506L6.25 9.88965L7.57812 11.2178L2.61719 16.1396L4.375 17.8975L8.08594 14.1475L8.78906 14.8506L9.41406 15.4756L5.66406 19.1865L4.375 20.5146L3.04688 19.2256L1.28906 17.4678L0 16.1396L1.28906 14.8506ZM8.75 6.17871V4.26465V3.63965L8.4375 3.44434C9.57031 1.68652 11.5234 0.514648 13.75 0.514648C14.2578 0.514648 14.7656 0.592773 15.2734 0.709961C15.9375 0.905273 16.5625 1.17871 17.1094 1.53027L15.7422 2.89746L13.75 4.88965V6.76465H15.625L17.6172 4.77246L18.9844 3.40527C19.3359 3.95215 19.6094 4.57715 19.8047 5.24121C19.9219 5.74902 20 6.25684 20 6.76465C20 9.03027 18.8281 10.9834 17.0703 12.0771L15.6641 10.71C17.0703 10.0068 18.0469 8.60059 18.125 6.9209L16.9531 8.09277L16.3672 8.63965H15.625H13.75H11.875V6.76465V4.88965V4.14746L12.4219 3.56152L13.5938 2.38965C11.25 2.50684 9.375 4.4209 9.375 6.76465V6.80371L8.75 6.17871ZM11.2109 13.0537L6.17188 8.01465H3.75L0 3.01465L2.5 0.514648L7.5 4.26465V6.72559L12.5391 11.7256L13.75 10.5146L20 16.7646L16.25 20.5146L10 14.2646L11.2109 13.0537Z" fill="#3364FA"/>
</g>
<defs>
<filter id="filter0_d_11293_907" x="0" y="0.514648" width="22" height="22" filterUnits="userSpaceOnUse" color-interpolation-filters="sRGB">
<feFlood flood-opacity="0" result="BackgroundImageFix"/>
<feColorMatrix in="SourceAlpha" type="matrix" values="0 0 0 0 0 0 0 0 0 0 0 0 0 0 0 0 0 0 127 0" result="hardAlpha"/>
<feOffset dx="2" dy="2"/>
<feComposite in2="hardAlpha" operator="out"/>
<feColorMatrix type="matrix" values="0 0 0 0 0.721569 0 0 0 0 0.988235 0 0 0 0 0.74902 0 0 0 1 0"/>
<feBlend mode="normal" in2="BackgroundImageFix" result="effect1_dropShadow_11293_907"/>
<feBlend mode="normal" in="SourceGraphic" in2="effect1_dropShadow_11293_907" result="shape"/>
</filter>
</defs>
</svg>
