<svg width="30" height="31" viewBox="0 0 30 31" fill="none" xmlns="http://www.w3.org/2000/svg">
<g filter="url(#filter0_d_10639_6589)">
<path d="M10.0625 1.8125V4H12.6875V1.8125V0.5H15.3125V1.8125V4H17.9375V1.8125V0.5H20.5625V1.8125V4H21.875H24.5V6.625V7.9375H26.6875H28V10.5625H26.6875H24.5V13.1875H26.6875H28V15.8125H26.6875H24.5V18.4375H26.6875H28V21.0625H26.6875H24.5V22.375V25H21.875H20.5625V27.1875V28.5H17.9375V27.1875V25H15.3125V27.1875V28.5H12.6875V27.1875V25H10.0625V27.1875V28.5H7.4375V27.1875V25H6.125H3.5V22.375V21.0625H1.3125H0V18.4375H1.3125H3.5V15.8125H1.3125H0V13.1875H1.3125H3.5V10.5625H1.3125H0V7.9375H1.3125H3.5V6.625V4H6.125H7.4375V1.8125V0.5H10.0625V1.8125ZM21.875 6.625H6.125V22.375H21.875V6.625ZM16.625 11.875H11.375V17.125H16.625V11.875ZM11.375 9.25H16.625H19.25V11.875V17.125V19.75H16.625H11.375H8.75V17.125V11.875V9.25H11.375Z" fill="#3364FA"/>
</g>
<defs>
<filter id="filter0_d_10639_6589" x="0" y="0.5" width="30" height="30" filterUnits="userSpaceOnUse" color-interpolation-filters="sRGB">
<feFlood flood-opacity="0" result="BackgroundImageFix"/>
<feColorMatrix in="SourceAlpha" type="matrix" values="0 0 0 0 0 0 0 0 0 0 0 0 0 0 0 0 0 0 127 0" result="hardAlpha"/>
<feOffset dx="2" dy="2"/>
<feComposite in2="hardAlpha" operator="out"/>
<feColorMatrix type="matrix" values="0 0 0 0 0.721569 0 0 0 0 0.988235 0 0 0 0 0.74902 0 0 0 1 0"/>
<feBlend mode="normal" in2="BackgroundImageFix" result="effect1_dropShadow_10639_6589"/>
<feBlend mode="normal" in="SourceGraphic" in2="effect1_dropShadow_10639_6589" result="shape"/>
</filter>
</defs>
</svg>
