<svg width="48" height="38" viewBox="0 0 48 38" fill="none" xmlns="http://www.w3.org/2000/svg">
<g filter="url(#filter0_d_10639_6983)">
<path d="M11.416 4.25V24.25H13.8379L19.2285 16.9062L20.791 14.875L22.2754 16.9062L23.2129 18.2344L27.2754 11.9844L28.916 9.64062L30.4785 11.9844L38.4473 24.25H41.416V4.25H11.416ZM7.66602 0.5H11.416H41.416H45.166V4.25V24.25V28H41.416H11.416H7.66602V24.25V4.25V0.5ZM3.91602 7.375V31.75H35.791H37.666V35.5H35.791H2.04102H0.166016V33.625V7.375V5.5H3.91602V7.375ZM20.166 9.25C20.166 10.6562 18.9941 11.75 17.666 11.75C16.2598 11.75 15.166 10.6562 15.166 9.25C15.166 7.92188 16.2598 6.75 17.666 6.75C18.9941 6.75 20.166 7.92188 20.166 9.25Z" fill="#3364FA"/>
</g>
<defs>
<filter id="filter0_d_10639_6983" x="0.166016" y="0.5" width="47" height="37" filterUnits="userSpaceOnUse" color-interpolation-filters="sRGB">
<feFlood flood-opacity="0" result="BackgroundImageFix"/>
<feColorMatrix in="SourceAlpha" type="matrix" values="0 0 0 0 0 0 0 0 0 0 0 0 0 0 0 0 0 0 127 0" result="hardAlpha"/>
<feOffset dx="2" dy="2"/>
<feComposite in2="hardAlpha" operator="out"/>
<feColorMatrix type="matrix" values="0 0 0 0 0.721569 0 0 0 0 0.988235 0 0 0 0 0.74902 0 0 0 1 0"/>
<feBlend mode="normal" in2="BackgroundImageFix" result="effect1_dropShadow_10639_6983"/>
<feBlend mode="normal" in="SourceGraphic" in2="effect1_dropShadow_10639_6983" result="shape"/>
</filter>
</defs>
</svg>
