<svg width="74" height="66" viewBox="0 0 74 66" fill="none" xmlns="http://www.w3.org/2000/svg">
<g filter="url(#filter0_d_11544_4907)">
<path d="M4.5 2.75V59H69.75H72V63.5H69.75H2.25H0V61.25V2.75V0.5H4.5V2.75ZM47.25 14H65.25H67.5V16.25V34.25V36.5H63V34.25V21.7344L46.5469 38.1875L45 39.7344L43.3125 38.1875L31.5 26.2344L17.2969 40.4375L15.75 41.9844L12.5156 38.75L14.0625 37.2031L29.8125 21.4531L31.5 19.9062L33.0469 21.4531L45 33.4062L59.7656 18.5H47.25H45V14H47.25Z" fill="#3364FA"/>
</g>
<defs>
<filter id="filter0_d_11544_4907" x="0" y="0.5" width="74" height="65" filterUnits="userSpaceOnUse" color-interpolation-filters="sRGB">
<feFlood flood-opacity="0" result="BackgroundImageFix"/>
<feColorMatrix in="SourceAlpha" type="matrix" values="0 0 0 0 0 0 0 0 0 0 0 0 0 0 0 0 0 0 127 0" result="hardAlpha"/>
<feOffset dx="2" dy="2"/>
<feComposite in2="hardAlpha" operator="out"/>
<feColorMatrix type="matrix" values="0 0 0 0 0.721569 0 0 0 0 0.988235 0 0 0 0 0.74902 0 0 0 1 0"/>
<feBlend mode="normal" in2="BackgroundImageFix" result="effect1_dropShadow_11544_4907"/>
<feBlend mode="normal" in="SourceGraphic" in2="effect1_dropShadow_11544_4907" result="shape"/>
</filter>
</defs>
</svg>
