<svg width="84" height="74" viewBox="0 0 84 74" fill="none" xmlns="http://www.w3.org/2000/svg">
<g filter="url(#filter0_d_11544_4889)">
<path d="M41 31.0781L70.3906 18L41 4.92188L11.4688 18L41 31.0781ZM75.875 15.6094L81.5 18L75.875 20.5312L41 36L5.98438 20.5312L0.5 18L5.98438 15.6094L41 0L75.875 15.6094ZM20.75 31.9219L11.4688 36L41 49.0781L70.3906 36L61.25 31.9219L66.7344 29.5312L75.875 33.6094L81.5 36L75.875 38.5312L41 54L5.98438 38.5312L0.5 36L5.98438 33.6094L15.125 29.5312L20.75 31.9219ZM15.125 47.5312L20.75 49.9219L11.4688 54L41 67.0781L70.3906 54L61.25 49.9219L66.7344 47.5312L75.875 51.6094L81.5 54L75.875 56.5312L41 72L5.98438 56.5312L0.5 54L5.98438 51.6094L15.125 47.5312Z" fill="#3364FA"/>
</g>
<defs>
<filter id="filter0_d_11544_4889" x="0.5" y="0" width="83" height="74" filterUnits="userSpaceOnUse" color-interpolation-filters="sRGB">
<feFlood flood-opacity="0" result="BackgroundImageFix"/>
<feColorMatrix in="SourceAlpha" type="matrix" values="0 0 0 0 0 0 0 0 0 0 0 0 0 0 0 0 0 0 127 0" result="hardAlpha"/>
<feOffset dx="2" dy="2"/>
<feComposite in2="hardAlpha" operator="out"/>
<feColorMatrix type="matrix" values="0 0 0 0 0.721569 0 0 0 0 0.988235 0 0 0 0 0.74902 0 0 0 1 0"/>
<feBlend mode="normal" in2="BackgroundImageFix" result="effect1_dropShadow_11544_4889"/>
<feBlend mode="normal" in="SourceGraphic" in2="effect1_dropShadow_11544_4889" result="shape"/>
</filter>
</defs>
</svg>
