<svg width="74" height="74" viewBox="0 0 74 74" fill="none" xmlns="http://www.w3.org/2000/svg">
<g filter="url(#filter0_d_11544_4901)">
<path d="M0.28125 36V36.1406H4.78125C5.76562 41.9062 8.71875 47.1094 12.7969 51.0469L13.5 51.75V52.7344V69.75V72H9V69.75V53.5781C4.35938 48.9375 1.26562 42.8906 0.28125 36ZM11.25 13.5H30.375C32.9062 10.8281 36.4219 9 40.5 9H48.375C44.5781 6.1875 39.9375 4.5 34.875 4.5H31.5C23.4844 4.5 16.3125 8.01562 11.25 13.5ZM5.625 13.5C11.25 5.34375 20.6719 0 31.5 0H34.875C42.75 0 50.0625 3.51562 54.9844 9H56.25H69.75H72V11.25V33.75V36H69.75H56.25H40.5C36.4219 36 32.9062 34.3125 30.375 31.5H2.25H0V29.25V15.75V13.5H2.25H5.625ZM27.7031 27C27.1406 25.5938 27 24.1875 27 22.5C27 20.9531 27.2812 19.4062 27.7031 18H4.5V27H27.7031ZM67.5 40.5H72V45V47.25H69.75H63V60.75V63H60.75H45V69.75V72H40.5V69.75V60.75V58.5H42.75H58.5V45V42.75H60.75H67.5V40.5ZM40.5 13.5C35.4375 13.5 31.5 17.5781 31.5 22.5C31.5 27.5625 35.4375 31.5 40.5 31.5H54V13.5H40.5ZM58.5 31.5H67.5V13.5H58.5V31.5Z" fill="#3364FA"/>
</g>
<defs>
<filter id="filter0_d_11544_4901" x="0" y="0" width="74" height="74" filterUnits="userSpaceOnUse" color-interpolation-filters="sRGB">
<feFlood flood-opacity="0" result="BackgroundImageFix"/>
<feColorMatrix in="SourceAlpha" type="matrix" values="0 0 0 0 0 0 0 0 0 0 0 0 0 0 0 0 0 0 127 0" result="hardAlpha"/>
<feOffset dx="2" dy="2"/>
<feComposite in2="hardAlpha" operator="out"/>
<feColorMatrix type="matrix" values="0 0 0 0 0.721569 0 0 0 0 0.988235 0 0 0 0 0.74902 0 0 0 1 0"/>
<feBlend mode="normal" in2="BackgroundImageFix" result="effect1_dropShadow_11544_4901"/>
<feBlend mode="normal" in="SourceGraphic" in2="effect1_dropShadow_11544_4901" result="shape"/>
</filter>
</defs>
</svg>
