<svg width="74" height="74" viewBox="0 0 74 74" fill="none" xmlns="http://www.w3.org/2000/svg">
<g filter="url(#filter0_d_11544_4871)">
<path d="M36 0.984375L36.7031 1.26562L70.4531 13.6406L72 14.2031V15.75V54V55.5469L70.5938 56.1094L36.8438 70.7344L36 71.1562L35.0156 70.7344L1.26562 56.1094L0 55.5469V54V15.75V14.2031L1.40625 13.6406L35.1562 1.26562L36 0.984375ZM4.5 52.5938L33.75 65.25V31.2188L4.5 19.8281V52.5938ZM38.25 65.25L67.5 52.5938V19.8281L38.25 31.2188V65.25ZM36 5.76562L7.59375 16.1719L36 27.2812L64.2656 16.1719L36 5.76562Z" fill="#3364FA"/>
</g>
<defs>
<filter id="filter0_d_11544_4871" x="0" y="0.984375" width="74" height="72.1719" filterUnits="userSpaceOnUse" color-interpolation-filters="sRGB">
<feFlood flood-opacity="0" result="BackgroundImageFix"/>
<feColorMatrix in="SourceAlpha" type="matrix" values="0 0 0 0 0 0 0 0 0 0 0 0 0 0 0 0 0 0 127 0" result="hardAlpha"/>
<feOffset dx="2" dy="2"/>
<feComposite in2="hardAlpha" operator="out"/>
<feColorMatrix type="matrix" values="0 0 0 0 0.721569 0 0 0 0 0.988235 0 0 0 0 0.74902 0 0 0 1 0"/>
<feBlend mode="normal" in2="BackgroundImageFix" result="effect1_dropShadow_11544_4871"/>
<feBlend mode="normal" in="SourceGraphic" in2="effect1_dropShadow_11544_4871" result="shape"/>
</filter>
</defs>
</svg>
