<svg width="74" height="73" viewBox="0 0 74 73" fill="none" xmlns="http://www.w3.org/2000/svg">
<g filter="url(#filter0_d_11544_4877)">
<path d="M39.6562 21.7969V21.6562L41.4844 20.6719C43.5938 18.9844 44.8594 16.4531 44.8594 13.5C44.8594 8.57812 40.9219 4.5 35.8594 4.5C30.9375 4.5 26.8594 8.57812 26.8594 13.5C26.8594 16.4531 28.2656 18.9844 30.375 20.6719L32.2031 21.6562V21.7969C33.3281 22.2188 34.5938 22.5 35.8594 22.5C37.2656 22.5 38.5312 22.2188 39.6562 21.7969ZM41.9062 25.7344C40.0781 26.5781 38.1094 27 35.8594 27C33.75 27 31.7812 26.5781 29.9531 25.7344L19.9688 43.3125C24.75 45.8438 30.0938 47.25 36 47.25C48.375 47.25 59.3438 40.5 65.1094 30.375L69.0469 32.625C62.4375 44.1562 50.0625 51.75 36 51.75C29.3906 51.75 23.0625 50.2031 17.7188 47.25L4.07812 70.875L0.28125 68.7656L13.9219 44.8594C9.42188 41.625 5.625 37.5469 2.8125 32.7656L6.75 30.5156C9.14062 34.5938 12.2344 38.1094 16.1719 40.9219L26.2969 23.0625C23.9062 20.6719 22.5 17.2969 22.5 13.5C22.5 6.04688 28.5469 0 36 0C43.4531 0 49.5 6.04688 49.5 13.5C49.5 17.2969 47.9531 20.6719 45.5625 23.0625L53.4375 36.9844C52.3125 37.8281 51.0469 38.6719 49.6406 39.375L41.9062 25.7344ZM67.7812 70.875L56.3906 51.0469C57.6562 50.3438 59.0625 49.6406 60.1875 48.7969L71.5781 68.7656L67.7812 70.875Z" fill="#3364FA"/>
</g>
<defs>
<filter id="filter0_d_11544_4877" x="0.28125" y="0" width="73.2969" height="72.875" filterUnits="userSpaceOnUse" color-interpolation-filters="sRGB">
<feFlood flood-opacity="0" result="BackgroundImageFix"/>
<feColorMatrix in="SourceAlpha" type="matrix" values="0 0 0 0 0 0 0 0 0 0 0 0 0 0 0 0 0 0 127 0" result="hardAlpha"/>
<feOffset dx="2" dy="2"/>
<feComposite in2="hardAlpha" operator="out"/>
<feColorMatrix type="matrix" values="0 0 0 0 0.721569 0 0 0 0 0.988235 0 0 0 0 0.74902 0 0 0 1 0"/>
<feBlend mode="normal" in2="BackgroundImageFix" result="effect1_dropShadow_11544_4877"/>
<feBlend mode="normal" in="SourceGraphic" in2="effect1_dropShadow_11544_4877" result="shape"/>
</filter>
</defs>
</svg>
