<svg width="37" height="31" viewBox="0 0 37 31" fill="none" xmlns="http://www.w3.org/2000/svg">
<g filter="url(#filter0_d_10639_6465)">
<path d="M7.875 9.25C6.28906 9.25 4.86719 8.42969 4.04688 7.0625C3.28125 5.75 3.28125 4.05469 4.04688 2.6875C4.86719 1.375 6.28906 0.5 7.875 0.5C9.40625 0.5 10.8281 1.375 11.6484 2.6875C12.4141 4.05469 12.4141 5.75 11.6484 7.0625C10.8281 8.42969 9.40625 9.25 7.875 9.25ZM28 9.25C26.4141 9.25 24.9922 8.42969 24.1719 7.0625C23.4062 5.75 23.4062 4.05469 24.1719 2.6875C24.9922 1.375 26.4141 0.5 28 0.5C29.5312 0.5 30.9531 1.375 31.7734 2.6875C32.5391 4.05469 32.5391 5.75 31.7734 7.0625C30.9531 8.42969 29.5312 9.25 28 9.25ZM2.625 11H10.7188C10.5547 11.6016 10.5 12.1484 10.5 12.75C10.5 14.8828 11.375 16.7422 12.8516 18H0L2.625 11ZM35 18H22.0938C23.5703 16.7422 24.5 14.8828 24.5 12.75C24.5 12.1484 24.3906 11.6016 24.2812 11H32.375L35 18ZM17.5 10.125C16.5156 10.125 15.6953 10.6719 15.2031 11.4375C14.7109 12.2578 14.7109 13.2969 15.2031 14.0625C15.6953 14.8828 16.5156 15.375 17.5 15.375C18.4297 15.375 19.25 14.8828 19.7422 14.0625C20.2344 13.2969 20.2344 12.2578 19.7422 11.4375C19.25 10.6719 18.4297 10.125 17.5 10.125ZM17.5 18C15.5859 18 13.8906 17.0156 12.9062 15.375C11.9766 13.7891 11.9766 11.7656 12.9062 10.125C13.8906 8.53906 15.5859 7.5 17.5 7.5C19.3594 7.5 21.0547 8.53906 22.0391 10.125C22.9688 11.7656 22.9688 13.7891 22.0391 15.375C21.0547 17.0156 19.3594 18 17.5 18ZM11.5391 22.375L10.5 25.875H24.4453L23.4062 22.375H11.5391ZM25.375 19.75L27.1797 25.875L28 28.5H25.2109H9.73438H7L7.76562 25.875L9.625 19.75H25.375Z" fill="#3364FA"/>
</g>
<defs>
<filter id="filter0_d_10639_6465" x="0" y="0.5" width="37" height="30" filterUnits="userSpaceOnUse" color-interpolation-filters="sRGB">
<feFlood flood-opacity="0" result="BackgroundImageFix"/>
<feColorMatrix in="SourceAlpha" type="matrix" values="0 0 0 0 0 0 0 0 0 0 0 0 0 0 0 0 0 0 127 0" result="hardAlpha"/>
<feOffset dx="2" dy="2"/>
<feComposite in2="hardAlpha" operator="out"/>
<feColorMatrix type="matrix" values="0 0 0 0 0.721569 0 0 0 0 0.988235 0 0 0 0 0.74902 0 0 0 1 0"/>
<feBlend mode="normal" in2="BackgroundImageFix" result="effect1_dropShadow_10639_6465"/>
<feBlend mode="normal" in="SourceGraphic" in2="effect1_dropShadow_10639_6465" result="shape"/>
</filter>
</defs>
</svg>
