<svg width="48" height="38" viewBox="0 0 48 38" fill="none" xmlns="http://www.w3.org/2000/svg">
<g filter="url(#filter0_d_10639_6972)">
<path d="M10.5781 26.2812C13.8594 29.4844 18 31.75 23 31.75C27.9219 31.75 32.0625 29.4844 35.3438 26.2812C38.1562 23.625 40.1875 20.4219 41.3594 18C40.1875 15.6562 38.1562 12.4531 35.3438 9.79688C32.0625 6.59375 27.9219 4.25 23 4.25C18 4.25 13.8594 6.59375 10.5781 9.79688C7.76562 12.4531 5.73438 15.6562 4.5625 18C5.73438 20.4219 7.76562 23.625 10.5781 26.2812ZM23 35.5C10.5781 35.5 2.84375 23.8594 0.5 18C2.84375 12.2188 10.5781 0.5 23 0.5C35.3438 0.5 43.1562 12.2188 45.5 18C43.1562 23.8594 35.3438 35.5 23 35.5ZM23 24.25C26.4375 24.25 29.25 21.5156 29.25 18C29.25 14.5625 26.4375 11.75 23 11.75C22.5312 11.75 22.1406 11.8281 21.75 11.9062L23 18L16.8281 16.8281C16.75 17.2188 16.75 17.6094 16.75 18C16.75 21.5156 19.4844 24.25 23 24.25ZM13 18C13 17.375 13 16.6719 13.1562 16.0469C13.9375 12.0625 17.0625 9.01562 20.9688 8.23438C21.6719 8.07812 22.2969 8 23 8C28.4688 8 33 12.5312 33 18C33 23.5469 28.4688 28 23 28C17.4531 28 13 23.5469 13 18Z" fill="#3364FA"/>
</g>
<defs>
<filter id="filter0_d_10639_6972" x="0.5" y="0.5" width="47" height="37" filterUnits="userSpaceOnUse" color-interpolation-filters="sRGB">
<feFlood flood-opacity="0" result="BackgroundImageFix"/>
<feColorMatrix in="SourceAlpha" type="matrix" values="0 0 0 0 0 0 0 0 0 0 0 0 0 0 0 0 0 0 127 0" result="hardAlpha"/>
<feOffset dx="2" dy="2"/>
<feComposite in2="hardAlpha" operator="out"/>
<feColorMatrix type="matrix" values="0 0 0 0 0.721569 0 0 0 0 0.988235 0 0 0 0 0.74902 0 0 0 1 0"/>
<feBlend mode="normal" in2="BackgroundImageFix" result="effect1_dropShadow_10639_6972"/>
<feBlend mode="normal" in="SourceGraphic" in2="effect1_dropShadow_10639_6972" result="shape"/>
</filter>
</defs>
</svg>
