<svg width="42" height="42" viewBox="0 0 42 42" fill="none" xmlns="http://www.w3.org/2000/svg">
<g filter="url(#filter0_d_10681_5677)">
<path d="M20 0.046875L20.625 0.28125L38.75 7.15625L40 7.625V8.875V29.5V30.75L38.8281 31.2969L20.7031 38.7969L20 39.0312L19.2188 38.7969L1.09375 31.2969L0 30.75V29.5V8.875V7.625L1.17188 7.15625L19.2969 0.28125L20 0.046875ZM3.75 28.25L18.125 34.2656V18.3281L3.75 12.7031V28.25ZM21.875 34.2656L36.25 28.25V12.7031L21.875 18.3281V34.2656ZM20 4.03125L5.78125 9.42188L20 15.0469L34.2188 9.42188L20 4.03125Z" fill="#3364FA"/>
</g>
<defs>
<filter id="filter0_d_10681_5677" x="0" y="0.046875" width="42" height="40.9844" filterUnits="userSpaceOnUse" color-interpolation-filters="sRGB">
<feFlood flood-opacity="0" result="BackgroundImageFix"/>
<feColorMatrix in="SourceAlpha" type="matrix" values="0 0 0 0 0 0 0 0 0 0 0 0 0 0 0 0 0 0 127 0" result="hardAlpha"/>
<feOffset dx="2" dy="2"/>
<feComposite in2="hardAlpha" operator="out"/>
<feColorMatrix type="matrix" values="0 0 0 0 0.721569 0 0 0 0 0.988235 0 0 0 0 0.74902 0 0 0 1 0"/>
<feBlend mode="normal" in2="BackgroundImageFix" result="effect1_dropShadow_10681_5677"/>
<feBlend mode="normal" in="SourceGraphic" in2="effect1_dropShadow_10681_5677" result="shape"/>
</filter>
</defs>
</svg>
