<svg width="22" height="23" viewBox="0 0 22 23" fill="none" xmlns="http://www.w3.org/2000/svg">
<g filter="url(#filter0_d_11293_870)">
<path d="M4.375 15.4365V18.0146V18.6396V20.5146H3.75H2.5V19.2646V18.6396V15.4365C1.01562 13.9521 0.15625 11.96 0 9.88965H1.875C2.03125 11.4912 2.69531 12.9756 3.82812 14.1084L4.375 14.6553V15.4365ZM8.75 2.38965C7.26562 2.38965 5.89844 2.8584 4.76562 3.63965H8.4375C9.14062 2.89746 10.1172 2.38965 11.25 2.38965H10H9.375H8.75ZM14.9609 2.38965H15H15.9375H16.875H18.125H20V4.26465V8.01465V9.88965H18.125H16.875H15.9375H15H11.25C10.1172 9.88965 9.14062 9.4209 8.4375 8.63965H0.9375H0V7.70215V4.57715V3.63965H0.9375H2.03125C3.63281 1.76465 6.05469 0.514648 8.75 0.514648H10C11.875 0.514648 13.6328 1.25684 14.9609 2.38965ZM18.125 11.1396H20V11.7646V12.3896V13.6396H19.375H18.75H18.125H17.5V15.5146V16.1396V16.7646V18.0146H16.25H15.625H14.375H12.5V18.6396V19.2646V19.8896V20.5146H11.25H10.625V18.6396V18.0146V16.1396H12.5H15.625V13.6396V11.7646H17.5H18.125V11.1396ZM1.875 5.51465V6.76465H7.53906C7.5 6.56934 7.5 6.37402 7.5 6.13965C7.5 5.94434 7.5 5.74902 7.53906 5.51465H1.875ZM18.125 4.26465H16.875V8.01465H18.125V4.26465ZM15 4.26465H11.25C10.1953 4.26465 9.375 5.12402 9.375 6.13965C9.375 7.19434 10.1953 8.01465 11.25 8.01465H15V4.26465Z" fill="#3364FA"/>
</g>
<defs>
<filter id="filter0_d_11293_870" x="0" y="0.514648" width="22" height="22" filterUnits="userSpaceOnUse" color-interpolation-filters="sRGB">
<feFlood flood-opacity="0" result="BackgroundImageFix"/>
<feColorMatrix in="SourceAlpha" type="matrix" values="0 0 0 0 0 0 0 0 0 0 0 0 0 0 0 0 0 0 127 0" result="hardAlpha"/>
<feOffset dx="2" dy="2"/>
<feComposite in2="hardAlpha" operator="out"/>
<feColorMatrix type="matrix" values="0 0 0 0 0.721569 0 0 0 0 0.988235 0 0 0 0 0.74902 0 0 0 1 0"/>
<feBlend mode="normal" in2="BackgroundImageFix" result="effect1_dropShadow_11293_870"/>
<feBlend mode="normal" in="SourceGraphic" in2="effect1_dropShadow_11293_870" result="shape"/>
</filter>
</defs>
</svg>
